<svg id="PHONE" xmlns="http://www.w3.org/2000/svg" width="199.986" height="35.095" viewBox="0 0 199.986 35.095">
  <text id="_800-303-8964" data-name="800-303-8964" transform="translate(40.986 27)" fill="#fff" font-size="25" font-family="OpenSans-Bold, Open Sans" font-weight="700"><tspan x="0" y="0">800-303-8964</tspan></text>
  <path id="np_phone_2031935_000000" d="M10.067,16.772A5.716,5.716,0,0,1,14.608,9.9c.582.233,2.213,2.1,3.96,4.658,1.863,2.562,1.98,3.61,1.282,4.308-.582.815-1.63,2.678-1.63,2.678a2.316,2.316,0,0,0,.35,1.747,85.783,85.783,0,0,0,9.2,9.2,2.324,2.324,0,0,0,1.747.35s1.747-1.165,2.562-1.747c.815-.7,1.863-.582,4.425,1.282s4.425,3.377,4.542,3.96-1.4,5.356-6.871,4.542c-9.083-1.4-22.709-15.023-24.107-24.107Z" transform="translate(-9.975 -5.876)" fill="#fff" fill-rule="evenodd"/>
</svg>
